# xmcd
#
# Track frame offsets:
#	150
#	15605
#	29487
#	41997
#	60747
#	78485
#	95172
#	112852
#	127997
#	147035
#	153857
#	169347
#	184780
#	201637
#	219072
#	235845
#
# Disc length: 3361 seconds
#
# Revision: 1
# Processed by: cddbd v1.4PL0 Copyright (c) Steve Scherf et al.
# Submitted via: audiograbber 1.81.02
#
DISCID=db0d1f10
DTITLE=Tumbleweed - Weedgarden European version
DYEAR=1900
DGENRE=Folk
TTITLE0=Let Your Chile Be Free
TTITLE1=No Big Deal
TTITLE2=All My Loving
TTITLE3=Nobody's Fault Buy Mine
TTITLE4=The Woman She Used To Be
TTITLE5=You'll Be Mine
TTITLE6=Lonesome Hearted Woman
TTITLE7=I Know You Love Me
TTITLE8=Chain Of Pain
TTITLE9=Mozart Banjart
TTITLE10=Wake Up
TTITLE11=Tumbling Tumbleweeds
TTITLE12=Coyote Choir
TTITLE13=Marry Me
TTITLE14=Tripped
TTITLE15=Arizona Rain
EXTD=
EXTT0=
EXTT1=
EXTT2=
EXTT3=
EXTT4=
EXTT5=
EXTT6=
EXTT7=
EXTT8=
EXTT9=
EXTT10=
EXTT11=
EXTT12=
EXTT13=
EXTT14=
EXTT15=
PLAYORDER=
